# xmcd
#
# Track frame offsets:
#	150
#	16575
#	39525
#	52425
#	69450
#	82800
#	105112
#	120525
#	132450
#	151800
#	173250
#	192375
#	215400
#	235537
#	257437
#	281550
#	294825
#	311025
#
# Disc length: 4361 seconds
#
# Revision: 1
# Processed by: cddbd v1.4PL0 Copyright (c) Steve Scherf et al.
# Submitted via: audiograbber 1.81.03
#
DISCID=e6110712
DTITLE=Various Artist - Blues Across The USA
DYEAR=1993
DGENRE=Blues
TTITLE0=Smokey Wilson, Jimmy McCracklin, Larry Davis - Tired Of Crying
TTITLE1=Otis Clay - Don't Burn The Bridge
TTITLE2=Eddie Hinton - I Love Someone
TTITLE3=Ann Peebles - Fear No Evil
TTITLE4=Larry Davis - I'm Working On It
TTITLE5=The Holmes Brothers - You're Gonna Make Me Cry
TTITLE6=Byther Smith - I'm A Mad Man
TTITLE7=Marcia Ball - How You Carry On
TTITLE8=Smokin' Joe Kubek and Bnois King - Can't Quit My Baby
TTITLE9=Barbara Lynn - I Love You Babe
TTITLE10=Dalton Reed - Full Moon
TTITLE11=Irma Thomas - Chains Of Love
TTITLE12=Chuck Carbo - Drawers Trouble
TTITLE13=Charles Brown - Tell Me You'll Wait For  Me
TTITLE14=Johnny Adams - You Don't Know What Love Is
TTITLE15=Angela Strehli - Never Like This Before
TTITLE16=Tracy Nelson - Every Night Of The Week
TTITLE17=Omar and The Howlers - Do It For Daddy
EXTD=Rounder sampler
EXTT0=Smokey Wilson, Jimmy McCracklin and Larry Davis
EXTT1=Otis Clay
EXTT2=Eddie Hinton
EXTT3=Ann Peebles
EXTT4=Larry Davis
EXTT5=The Holmes Brothers
EXTT6=Bynther Smith
EXTT7=Marcia Bell
EXTT8=Smokin'Joe Kubek with Bnois King
EXTT9=barbara Lynn
EXTT10=Dalton reed
EXTT11=Irma Thomas
EXTT12=Chuck Carbo
EXTT13=Charles Brown
EXTT14=Johnny Adams
EXTT15=Angela Strehli
EXTT16=Tracy Nelson
EXTT17=Ommar and The Howlers
PLAYORDER=
